<svg width="20" height="20" viewBox="0 0 151 141" fill="none" xmlns="http://www.w3.org/2000/svg">
<path d="M35.1551 0H30.9084C30.3666 0 29.8527 0.0949395 29.3548 0.229841C26.8674 0.902503 25.0287 3.11684 25.0287 5.77306V8.21054V14.4495V17.6955C25.0287 18.2986 25.1492 18.8685 25.324 19.4141C26.0725 21.7578 28.2752 23.4685 30.9084 23.4685H35.1551C38.403 23.4685 41.0348 20.8842 41.0348 17.6955V14.4495V8.21054V5.77306C41.0348 2.58439 38.403 0 35.1551 0Z" fill="#D9BA70"/>
<path d="M118.742 0H114.495C111.247 0 108.615 2.58439 108.615 5.77306V8.21054V14.4495V17.6955C108.615 20.8842 111.247 23.4685 114.495 23.4685H118.742C121.99 23.4685 124.621 20.8842 124.621 17.6955V14.4495V8.21054V5.77306C124.62 2.58439 121.988 0 118.742 0Z" fill="#D9BA70"/>
<path d="M140.433 14.4495H129.918V17.6954C129.918 23.3149 124.904 27.8863 118.74 27.8863H114.494C108.331 27.8863 103.316 23.3149 103.316 17.6954V14.4495H46.3332V17.6954C46.3332 23.3149 41.3183 27.8863 35.1552 27.8863H30.9085C24.7451 27.8863 19.7305 23.3149 19.7305 17.6954V14.4495H10.5688C4.73283 14.4495 0 18.1493 0 22.7108V132.739C0 137.309 4.73255 141 10.5688 141H140.431C146.273 141 151 137.308 151 132.739V22.712C151.001 18.1505 146.274 14.4495 140.433 14.4495ZM137.156 128.873L13.4602 128.833V40.128H137.156V128.873Z" fill="#D9BA70"/>
<path d="M88.7472 61.5047H121.279C124.102 61.5047 126.386 59.1534 126.386 56.2475C126.386 53.3415 124.101 50.9902 121.279 50.9902H88.7472C85.9234 50.9902 83.6395 53.3415 83.6395 56.2475C83.6395 59.1523 85.9231 61.5047 88.7472 61.5047Z" fill="#D9BA70"/>
<path d="M88.7472 80.4946H121.279C124.102 80.4946 126.386 78.1433 126.386 75.2374C126.386 72.3317 124.101 69.9803 121.279 69.9803H88.7472C85.9234 69.9803 83.6395 72.3317 83.6395 75.2374C83.6395 78.1433 85.9231 80.4946 88.7472 80.4946Z" fill="#D9BA70"/>
<path d="M88.7472 99.4846H121.279C124.102 99.4846 126.386 97.133 126.386 94.2273C126.386 91.3216 124.101 88.9701 121.279 88.9701H88.7472C85.9234 88.9701 83.6395 91.3216 83.6395 94.2273C83.6395 97.133 85.9231 99.4846 88.7472 99.4846Z" fill="#D9BA70"/>
<path d="M88.7472 118.476H121.279C124.102 118.476 126.386 116.124 126.386 113.219C126.386 110.313 124.101 107.961 121.279 107.961H88.7472C85.9234 107.961 83.6395 110.313 83.6395 113.219C83.6395 116.124 85.9231 118.476 88.7472 118.476Z" fill="#D9BA70"/>
<path d="M31.1285 61.5047H63.6599C66.4837 61.5047 68.7673 59.1534 68.7673 56.2475C68.7673 53.3415 66.4823 50.9902 63.6599 50.9902H31.1285C28.3045 50.9902 26.0209 53.3415 26.0209 56.2475C26.0212 59.1523 28.3045 61.5047 31.1285 61.5047Z" fill="#D9BA70"/>
<path d="M31.1285 80.4946H63.6599C66.4837 80.4946 68.7673 78.1433 68.7673 75.2374C68.7673 72.3317 66.4823 69.9803 63.6599 69.9803H31.1285C28.3045 69.9803 26.0209 72.3317 26.0209 75.2374C26.0212 78.1433 28.3045 80.4946 31.1285 80.4946Z" fill="#D9BA70"/>
<path d="M31.1285 99.4846H63.6599C66.4837 99.4846 68.7673 97.133 68.7673 94.2273C68.7673 91.3216 66.4823 88.9701 63.6599 88.9701H31.1285C28.3045 88.9701 26.0209 91.3216 26.0209 94.2273C26.0209 97.133 28.3045 99.4846 31.1285 99.4846Z" fill="#D9BA70"/>
<path d="M31.1285 118.476H63.6599C66.4837 118.476 68.7673 116.124 68.7673 113.219C68.7673 110.313 66.4823 107.961 63.6599 107.961H31.1285C28.3045 107.961 26.0209 110.313 26.0209 113.219C26.0212 116.124 28.3045 118.476 31.1285 118.476Z" fill="#D9BA70"/>
</svg>
