<svg width="20" height="21" viewBox="0 0 20 21" fill="none" xmlns="http://www.w3.org/2000/svg">
<path d="M10 20.5C11.375 20.5 12.5 19.5769 12.5 18.4487H7.5C7.5 19.5769 8.625 20.5 10 20.5ZM17.5 14.3462V9.21795C17.5 6.06923 15.4625 3.43333 11.875 2.7359V2.03846C11.875 1.18718 11.0375 0.5 10 0.5C8.9625 0.5 8.125 1.18718 8.125 2.03846V2.7359C4.55 3.43333 2.5 6.05897 2.5 9.21795V14.3462L0 16.3974V17.4231H20V16.3974L17.5 14.3462ZM15 15.3718H5V9.21795C5 6.67436 6.8875 4.60256 10 4.60256C13.1125 4.60256 15 6.67436 15 9.21795V15.3718Z" fill="#D49139"/>
</svg>
