<svg width="18" height="18" viewBox="0 0 32 31" fill="#D49139" xmlns="http://www.w3.org/2000/svg">
<path d="M22.8702 19.4969H21.4248L20.9125 19.0183C22.7055 16.9977 23.785 14.3745 23.785 11.5209C23.785 5.1578 18.4608 0 11.8925 0C5.32419 0 0 5.1578 0 11.5209C0 17.8839 5.32419 23.0417 11.8925 23.0417C14.8382 23.0417 17.546 21.996 19.6318 20.259L20.1258 20.7553V22.1555L29.2739 31L32 28.3591L22.8702 19.4969ZM11.8925 19.4969C7.33676 19.4969 3.65923 15.9342 3.65923 11.5209C3.65923 7.10749 7.33676 3.54488 11.8925 3.54488C16.4483 3.54488 20.1258 7.10749 20.1258 11.5209C20.1258 15.9342 16.4483 19.4969 11.8925 19.4969Z" fill="black" fill-opacity="0.4"/>
</svg>
